<?xml version="1.0" standalone="no"?>
<!DOCTYPE svg PUBLIC "-//W3C//DTD SVG 20010904//EN"
 "http://www.w3.org/TR/2001/REC-SVG-20010904/DTD/svg10.dtd">
<svg version="1.0" xmlns="http://www.w3.org/2000/svg"
 width="2000.000000pt" height="2000.000000pt" viewBox="0 0 2000.000000 2000.000000"
 preserveAspectRatio="xMidYMid meet">
<metadata>
Created by potrace 1.14, written by Peter Selinger 2001-2017
</metadata>
<g transform="translate(0.000000,2000.000000) scale(0.100000,-0.100000)"
fill="#000000" stroke="none">
<path d="M10615 18439 c-80 -12 -206 -44 -475 -124 -708 -211 -973 -260 -1545
-285 -317 -14 -470 -41 -675 -117 -551 -206 -934 -630 -1099 -1217 -16 -57
-39 -146 -50 -198 -19 -91 -87 -541 -93 -626 -4 -42 -3 -43 22 -38 14 3 75 17
135 30 233 54 418 71 915 82 179 4 383 2 518 -5 446 -22 1541 -135 2437 -251
288 -38 400 -56 800 -130 1214 -225 1535 -229 2140 -26 72 24 145 47 162 51
39 8 41 -1 -28 203 -143 419 -288 701 -489 947 -334 409 -801 785 -1495 1205
-321 194 -751 436 -823 463 -121 45 -224 55 -357 36z"/>
<path d="M13880 15434 c0 -37 29 -93 57 -111 42 -28 46 -2 8 57 -19 30 -35 60
-35 67 0 7 -7 13 -15 13 -9 0 -15 -10 -15 -26z"/>
<path d="M7912 15403 c-7 -26 -44 -104 -82 -173 -106 -191 -127 -273 -96 -360
11 -29 18 -35 42 -35 32 0 29 -9 59 160 9 49 31 135 50 190 18 55 38 129 45
165 6 36 13 73 16 83 3 10 0 17 -8 17 -8 0 -19 -20 -26 -47z"/>
<path d="M13727 15404 c-3 -3 7 -26 23 -50 15 -24 52 -97 81 -162 59 -132 69
-150 117 -209 39 -50 118 -101 133 -86 16 16 -27 97 -111 208 -42 55 -96 129
-120 165 -53 79 -101 140 -110 140 -4 0 -9 -3 -13 -6z"/>
<path d="M6253 15307 c-33 -49 -52 -110 -64 -211 -6 -50 -20 -147 -31 -215
-22 -132 -20 -206 7 -247 33 -51 56 -21 76 101 14 81 14 56 5 306 -6 195 -6
196 19 245 28 55 28 54 18 54 -5 0 -18 -15 -30 -33z"/>
<path d="M11815 15300 c-17 -28 45 -245 111 -390 60 -128 144 -253 160 -237
13 13 -81 279 -140 392 -34 66 -74 148 -89 183 -29 65 -32 68 -42 52z"/>
<path d="M13254 15050 c88 -224 106 -260 147 -294 63 -53 56 -14 -23 131 -41
76 -96 176 -121 223 -78 145 -79 132 -3 -60z"/>
<path d="M13358 15225 c-16 -16 27 -131 65 -172 39 -43 36 -12 -8 79 -49 100
-49 100 -57 93z"/>
<path d="M12420 15116 c0 -2 9 -48 20 -102 22 -107 81 -238 202 -449 47 -83
70 -112 91 -119 70 -25 49 19 -153 329 -94 143 -101 157 -122 248 -12 53 -25
97 -30 97 -4 0 -8 -2 -8 -4z"/>
<path d="M7987 14963 c-12 -11 -7 -107 6 -133 13 -26 44 -35 39 -12 -1 8 -5
35 -8 60 -10 89 -17 105 -37 85z"/>
<path d="M6382 14808 c4 -105 23 -107 23 -1 0 53 -4 78 -13 81 -10 3 -12 -15
-10 -80z"/>
<path d="M12830 14816 c0 -8 16 -38 36 -67 20 -29 54 -95 75 -148 44 -106 62
-131 96 -131 28 0 29 7 2 45 -11 17 -36 62 -56 100 -19 39 -52 91 -74 117 -21
25 -44 58 -50 72 -13 28 -29 35 -29 12z"/>
<path d="M12182 14729 c7 -56 49 -161 67 -167 16 -5 14 3 -22 122 -27 91 -53
116 -45 45z"/>
<path d="M14215 14730 c-10 -11 -58 -40 -107 -66 l-90 -46 7 -36 c15 -86 64
-216 128 -341 101 -197 125 -279 96 -333 -14 -25 -68 -48 -115 -48 -34 0 -36
-1 -29 -27 3 -16 30 -84 59 -153 63 -146 81 -216 72 -272 -13 -81 -63 -127
-108 -99 -10 6 -18 10 -18 9 0 -2 9 -35 20 -73 11 -39 27 -107 35 -151 22
-129 0 -176 -75 -159 -17 4 -30 4 -30 2 0 -3 29 -56 64 -120 183 -325 296
-605 296 -729 0 -87 -113 -175 -173 -135 -24 16 -24 16 -24 -23 0 -58 -25 -90
-69 -90 -30 0 -35 -3 -29 -17 92 -234 226 -660 272 -863 22 -96 27 -141 27
-272 1 -86 -2 -159 -6 -163 -4 -4 -44 -9 -90 -12 -65 -4 -91 -2 -115 10 l-31
16 30 -92 c35 -107 48 -239 28 -287 -12 -28 -25 -35 -60 -30 -11 2 -10 -3 5
-21 11 -13 24 -28 30 -34 45 -40 116 -219 135 -336 28 -175 -56 -315 -201
-335 -58 -8 -116 8 -177 50 l-50 33 10 -34 c13 -48 2 -88 -34 -118 -36 -30
-62 -32 -81 -5 -11 16 -13 4 -9 -94 5 -133 -4 -161 -48 -152 l-29 5 46 -76
c124 -211 225 -439 263 -595 66 -270 14 -505 -161 -733 l-50 -66 69 -107 c332
-510 496 -898 480 -1130 -14 -190 -143 -247 -337 -150 -126 64 -209 165 -357
438 -41 77 -77 140 -79 140 -2 0 10 -39 26 -87 118 -347 177 -726 166 -1073
-14 -420 -97 -714 -283 -996 -276 -419 -458 -276 -558 441 -33 235 -53 469
-86 990 -10 177 -25 365 -32 420 l-12 99 -13 -78 c-47 -278 -210 -313 -253
-55 -5 35 -17 110 -25 167 -29 197 -84 314 -209 437 -130 130 -293 199 -532
226 -123 14 -199 8 -544 -41 -151 -22 -345 -44 -430 -51 -316 -23 -548 18
-647 114 l-33 31 -32 -31 c-70 -66 -167 -98 -347 -114 -185 -17 -376 -1 -816
66 -319 49 -520 42 -711 -24 -118 -40 -186 -83 -280 -176 -127 -125 -188 -271
-213 -505 -17 -156 -55 -253 -105 -266 -66 -16 -135 78 -158 214 -6 40 -15 67
-19 60 -10 -20 -27 -235 -49 -628 -30 -523 -52 -761 -91 -995 -63 -378 -157
-554 -282 -531 -87 16 -188 121 -302 311 -163 271 -239 587 -239 1000 -1 341
46 647 151 978 13 44 22 81 20 83 -3 3 -39 -60 -80 -140 -42 -80 -93 -171
-113 -203 -77 -121 -215 -226 -331 -253 -100 -23 -175 7 -214 87 -21 42 -24
61 -23 148 1 65 9 127 22 175 70 264 249 617 511 1010 53 79 104 156 113 171
l18 26 -55 38 c-142 98 -325 354 -325 455 0 22 -10 41 -35 66 -65 64 -93 152
-65 204 10 18 8 18 -35 -1 -65 -29 -104 -22 -133 21 -20 29 -23 45 -20 90 7
92 35 137 254 405 69 85 124 175 148 241 l14 41 -50 -49 c-75 -73 -135 -79
-176 -18 -28 41 -25 83 7 129 l21 29 -37 -5 c-51 -7 -93 25 -93 70 0 27 29
122 54 179 6 13 -2 18 -48 28 -104 21 -146 79 -146 202 0 119 52 285 161 517
33 68 59 125 59 126 0 2 -17 -13 -37 -32 -50 -45 -84 -43 -95 7 -9 43 5 159
38 304 13 60 24 110 24 111 0 1 -21 -8 -47 -21 -83 -43 -140 -28 -179 46 -15
27 -19 57 -19 130 0 124 19 179 150 436 57 110 110 225 119 255 8 30 23 81 33
114 l17 60 8 -75 c14 -135 82 -229 192 -267 70 -25 221 -24 296 1 98 33 193
83 366 192 198 125 311 184 414 216 67 20 94 23 245 22 156 0 178 -2 260 -28
226 -68 408 -190 576 -383 66 -77 86 -94 122 -104 100 -27 224 28 256 114 32
85 21 282 -24 404 -128 352 -573 639 -1102 708 -141 19 -247 19 -383 1 -523
-71 -1018 -315 -1157 -571 l-33 -60 8 50 c14 99 8 286 -12 343 l-18 53 -43
-40 c-31 -28 -57 -42 -97 -51 -74 -17 -107 -5 -132 44 -17 34 -18 46 -8 100 6
34 31 100 55 148 42 82 43 87 23 90 -50 7 -54 77 -15 250 l21 88 41 -24 c98
-57 261 -78 387 -52 147 31 203 68 401 267 98 99 182 179 188 179 6 0 8 -19 4
-49 l-6 -49 41 -7 c51 -8 110 8 190 51 34 19 65 34 67 34 3 0 0 -12 -6 -26
-13 -36 -3 -63 28 -70 39 -10 131 3 208 29 78 27 210 91 220 107 3 5 11 10 16
10 5 0 -11 -39 -36 -86 -120 -228 -114 -403 21 -553 178 -198 569 -162 1084
99 316 160 622 389 801 598 34 39 63 72 64 72 2 0 -8 -35 -22 -77 -28 -91 -50
-221 -40 -247 6 -16 17 -18 80 -14 58 3 87 11 151 41 43 20 81 37 86 37 4 0 5
-33 2 -74 -4 -70 -3 -76 21 -100 37 -37 102 -36 185 4 35 17 65 30 67 30 2 0
-10 -27 -27 -59 -50 -98 -39 -185 33 -245 84 -71 213 -108 384 -109 105 0 130
3 205 28 105 34 240 101 340 168 74 50 202 169 253 237 l26 35 1 -57 c0 -51 2
-58 20 -58 30 0 121 37 173 70 26 16 50 30 52 30 2 0 -1 -14 -7 -31 -13 -37
-5 -160 14 -206 14 -37 18 -38 108 -19 68 15 151 49 210 87 l35 23 -21 -25
c-184 -213 -214 -261 -214 -339 0 -58 40 -141 84 -175 57 -43 141 -50 259 -20
17 4 16 2 -3 -6 -283 -131 -381 -191 -494 -303 -108 -107 -173 -209 -218 -342
-20 -59 -23 -89 -23 -214 0 -135 2 -148 23 -183 49 -77 168 -116 256 -83 32
12 56 33 86 71 98 127 261 261 405 333 172 87 315 117 512 110 195 -8 302 -50
578 -228 279 -179 432 -239 583 -226 183 15 282 118 298 309 8 93 -9 174 -53
260 -135 257 -546 480 -1073 579 -90 17 -152 22 -285 22 -174 0 -262 -11 -425
-54 -41 -10 -76 -18 -77 -16 -2 2 36 18 84 36 291 110 494 202 611 276 29 19
55 34 59 34 3 0 30 -12 59 -26 48 -23 63 -26 141 -22 111 4 179 34 264 115
143 136 245 356 318 681 17 77 30 118 34 108 4 -10 7 -26 7 -35 0 -10 9 -30
21 -45 41 -52 121 -23 155 56 38 92 28 425 -18 600 l-13 47 -75 -33 c-41 -18
-110 -54 -154 -80 -103 -62 -290 -155 -410 -205 -312 -130 -538 -170 -1010
-178 -540 -10 -915 34 -1856 217 -228 45 -431 85 -450 90 -63 16 -482 88 -667
114 -347 49 -586 65 -1308 86 -192 6 -447 15 -565 22 -423 22 -526 14 -1018
-82 -167 -33 -329 -63 -359 -67 -68 -8 -93 -28 -201 -162 -138 -172 -251 -360
-337 -561 -20 -47 -61 -134 -90 -195 -48 -98 -125 -307 -125 -341 0 -7 -4 -15
-9 -18 -21 -13 -589 320 -948 556 l-153 100 -37 -27 c-21 -16 -81 -72 -133
-124 -71 -71 -104 -114 -130 -166 -33 -66 -35 -76 -35 -170 0 -92 3 -106 32
-167 38 -82 82 -147 237 -353 173 -231 295 -389 508 -656 103 -131 188 -240
188 -243 0 -3 -62 -100 -139 -214 -76 -115 -160 -248 -186 -297 -67 -123 -131
-283 -157 -395 -17 -76 -31 -110 -71 -170 -180 -275 -306 -654 -338 -1017 -11
-129 -7 -453 7 -588 60 -562 283 -1374 470 -1710 176 -316 428 -525 766 -636
51 -16 93 -31 95 -33 2 -1 -18 -47 -43 -101 -77 -166 -191 -439 -228 -547 -92
-268 -93 -464 -4 -630 41 -77 131 -161 197 -183 28 -9 53 -21 56 -26 9 -13
-29 -92 -90 -189 -30 -48 -55 -93 -55 -99 0 -18 -112 -290 -248 -601 -206
-471 -263 -623 -323 -856 -66 -261 -82 -399 -83 -709 -1 -246 1 -279 22 -374
64 -292 200 -499 387 -592 318 -157 717 60 855 466 l17 49 6 -149 c8 -186 29
-345 68 -492 76 -299 185 -465 357 -550 72 -36 81 -38 171 -38 81 0 104 4 146
24 115 57 258 246 396 526 43 88 92 196 108 240 l30 80 1 -110 c1 -221 56
-342 170 -376 115 -35 247 98 324 326 20 58 25 66 29 45 100 -449 171 -593
312 -631 65 -18 171 -6 240 26 82 39 193 152 283 288 119 182 159 307 207 649
15 103 34 220 44 260 16 66 19 70 25 43 45 -184 102 -247 226 -249 145 -2 322
161 346 319 6 46 -20 232 -96 670 -51 293 -75 554 -53 568 5 3 8 -6 5 -22 -7
-52 18 -145 92 -330 74 -186 107 -284 166 -501 97 -351 278 -709 444 -875 98
-97 158 -128 264 -133 77 -4 87 -2 146 27 131 64 280 261 397 522 99 220 181
497 209 704 5 44 15 95 21 113 11 34 33 42 43 16 12 -30 6 -281 -9 -395 -25
-186 -29 -299 -15 -374 21 -111 86 -163 164 -131 44 18 60 46 110 181 7 18 9
18 23 -10 24 -46 73 -93 110 -106 60 -19 146 15 180 72 10 16 20 29 23 29 3 0
12 -35 19 -77 38 -228 158 -633 265 -902 94 -235 133 -308 196 -373 104 -106
179 -103 295 16 177 179 310 447 368 741 23 115 24 118 30 74 16 -116 92 -236
178 -279 107 -55 250 9 297 133 l18 47 33 -103 c42 -127 76 -197 155 -312 141
-207 260 -278 423 -253 217 32 387 240 472 573 42 166 81 530 81 765 l0 85 65
-192 c63 -187 135 -374 174 -451 43 -84 151 -188 249 -240 208 -110 412 -100
583 28 304 227 408 766 263 1358 -78 317 -213 629 -569 1307 -179 343 -378
765 -360 765 2 0 23 -10 46 -22 200 -104 432 93 464 393 8 78 -8 201 -41 317
-29 102 -132 360 -221 556 -35 77 -63 141 -63 142 0 0 30 4 68 8 249 25 511
127 705 272 282 211 459 522 631 1108 162 547 231 925 243 1316 20 665 -146
1161 -555 1659 -47 57 -170 191 -273 297 -104 106 -190 203 -193 216 -2 12
-14 65 -25 115 -12 51 -24 119 -27 151 l-6 58 177 225 c335 422 625 817 669
908 40 83 41 89 41 186 0 94 -2 105 -34 170 -37 74 -150 201 -246 275 l-53 41
-184 -119 c-240 -156 -607 -377 -614 -370 -3 3 -20 66 -39 139 -122 487 -417
940 -801 1232 -60 45 -62 46 -79 27z m-7071 -2096 c30 -12 16 -24 -27 -24 -24
0 -65 -7 -91 -16 -51 -17 -66 -14 -46 11 22 27 123 45 164 29z m5966 -4 c41
-11 78 -35 68 -45 -3 -3 -30 1 -59 9 -29 9 -70 16 -90 16 -21 0 -40 4 -44 9
-11 19 70 26 125 11z m-5417 -51 c20 -5 37 -15 37 -21 0 -7 -13 -8 -37 -4 -21
3 -64 6 -95 6 -62 0 -80 16 -25 23 61 7 82 7 120 -4z m4906 -5 c9 -9 -7 -11
-96 -17 -54 -3 -93 -2 -93 3 0 5 12 12 28 16 15 3 32 7 37 10 12 4 118 -6 124
-12z m-409 -13 c0 -11 -169 -75 -177 -67 -13 13 23 36 92 60 67 23 85 24 85 7z
m-4154 -7 c55 -16 104 -47 92 -59 -8 -9 -168 54 -168 66 0 13 14 11 76 -7z
m-659 -9 c2 -7 -23 -11 -67 -10 -66 0 -86 7 -57 19 21 9 120 2 124 -9z m5516
3 c14 -11 5 -13 -58 -13 -70 0 -92 6 -62 18 25 11 104 7 120 -5z m-6213 -68
c0 -5 -33 -19 -72 -31 -65 -19 -79 -28 -129 -81 -58 -63 -92 -73 -65 -19 29
55 100 112 166 132 36 11 100 11 100 -1z m6932 -21 c52 -26 95 -64 115 -103
28 -53 -2 -47 -62 14 -51 52 -70 64 -127 81 -38 11 -68 25 -68 31 0 17 92 2
142 -23z m-5727 11 c4 -6 -20 -10 -64 -10 -41 0 -71 4 -71 10 0 6 28 10 64 10
36 0 68 -4 71 -10z m4505 0 c0 -6 -28 -10 -65 -10 -37 0 -65 4 -65 10 0 6 28
10 65 10 37 0 65 -4 65 -10z m-5485 -39 c-9 -8 -113 -41 -129 -41 -16 0 -3 21
22 34 29 16 123 22 107 7z m679 3 c36 -14 12 -24 -54 -24 -64 0 -89 10 -57 23
18 8 93 8 111 1z m5090 0 c36 -14 12 -24 -54 -24 -64 0 -81 6 -63 23 8 9 96 9
117 1z m672 -10 c29 -14 46 -34 28 -34 -16 0 -120 33 -128 41 -17 16 64 10
100 -7z m-6126 -12 c0 -9 -88 -32 -123 -32 -29 0 -11 16 33 28 44 13 90 15 90
4z m5829 -17 c24 -13 24 -14 5 -15 -38 0 -134 23 -134 33 0 13 96 0 129 -18z
m-5056 -76 c46 -12 50 -34 5 -26 -18 4 -71 11 -118 17 -47 7 -87 14 -89 16 -9
9 166 3 202 -7z m4356 7 c-10 -11 -225 -34 -233 -26 -15 15 53 28 148 29 49 1
87 -1 85 -3z m-5419 -14 c0 -5 -24 -14 -52 -21 -29 -6 -72 -22 -95 -36 -24
-13 -45 -20 -48 -16 -7 13 40 52 82 66 42 16 113 20 113 7z m1418 -66 c33 -17
43 -36 19 -36 -8 0 -40 19 -73 41 -73 51 -67 46 -59 59 4 7 20 0 43 -18 20
-16 52 -37 70 -46z m3567 54 c-10 -16 -127 -90 -143 -90 -14 0 -14 2 -2 14 51
50 166 110 145 76z m1399 9 c46 -11 106 -53 94 -65 -5 -4 -32 4 -60 18 -29 15
-70 29 -90 33 -21 4 -38 11 -38 16 0 12 42 11 94 -2z m-4788 -35 c51 -53 41
-63 -13 -14 -27 24 -50 45 -52 47 -2 2 4 3 14 3 10 0 33 -16 51 -36z m3149 24
c-11 -6 -34 -27 -52 -47 -22 -25 -32 -31 -33 -20 0 21 65 79 88 79 14 -1 14
-2 -3 -12z m-4257 -6 c23 -4 41 -11 40 -16 -8 -24 -138 -10 -138 15 0 10 35
11 98 1z m5402 -1 c0 -17 -21 -24 -82 -27 -42 -2 -58 1 -55 9 6 20 137 36 137
18z m-6210 -15 c0 -10 -118 -126 -128 -126 -15 0 -15 5 2 39 20 38 82 91 106
91 11 0 20 -2 20 -4z m6990 -18 c36 -25 79 -92 67 -104 -8 -8 -127 103 -127
118 0 15 27 8 60 -14z m-6440 -37 c0 -5 -19 -14 -42 -20 -24 -7 -49 -15 -55
-17 -7 -3 -13 -1 -13 6 0 13 56 39 88 40 12 0 22 -4 22 -9z m5924 -22 c19 -20
19 -21 2 -15 -10 3 -38 11 -62 17 -57 15 -58 34 -3 26 25 -3 51 -15 63 -28z
m-5108 -12 c11 -10 -15 -27 -41 -27 -31 0 -147 18 -152 24 -3 2 -3 8 0 13 6
10 182 1 193 -10z m4384 8 c0 -8 -11 -17 -25 -21 -37 -9 -162 -10 -171 -1 -15
15 9 22 94 28 48 3 90 7 95 7 4 1 7 -5 7 -13z m-6056 -86 c-27 -27 -50 -45
-53 -38 -4 14 80 100 92 92 5 -3 -13 -27 -39 -54z m1964 41 c23 -10 42 -26 42
-34 0 -13 -8 -12 -57 5 -31 10 -67 19 -80 19 -14 0 -23 6 -23 15 0 22 65 19
118 -5z m3730 3 c2 -9 -7 -13 -27 -13 -17 0 -53 -9 -80 -20 -28 -11 -53 -15
-56 -10 -5 8 35 41 65 53 25 10 93 3 98 -10z m1865 -37 c43 -52 35 -71 -9 -23
-51 55 -59 67 -42 67 7 0 30 -20 51 -44z m-7193 -7 c0 -7 -18 -31 -39 -54 -22
-24 -51 -66 -66 -94 -26 -53 -45 -66 -45 -31 0 34 39 100 87 146 45 44 63 54
63 33z m6865 -30 c41 -38 95 -126 95 -156 0 -30 -27 -9 -54 42 -16 30 -46 73
-67 95 -67 69 -45 85 26 19z m-4818 7 c15 -13 25 -27 21 -31 -8 -8 -68 32 -68
46 0 16 18 10 47 -15z m2757 15 c5 -7 -55 -51 -70 -51 -15 0 1 23 29 40 37 23
34 22 41 11z m-2908 -31 c1 0 7 -14 14 -30 17 -41 6 -50 -14 -12 -8 16 -27 33
-41 36 -14 4 -25 10 -25 15 0 6 13 6 32 0 18 -5 33 -9 34 -9z m3064 -1 c-14
-5 -35 -22 -47 -36 -29 -36 -37 -26 -13 15 16 26 26 32 52 31 32 0 32 -1 8
-10z m-5250 -174 c-36 -53 -56 -70 -65 -55 -7 12 50 106 68 113 26 9 24 -19
-3 -58z m2020 35 c42 -22 49 -29 31 -30 -25 0 -101 38 -101 52 0 13 11 9 70
-22z m3383 -6 c-21 -13 -51 -23 -68 -23 -26 0 -23 3 30 28 70 33 94 30 38 -5z
m2017 -18 c30 -45 39 -76 20 -76 -10 0 -80 98 -80 112 0 23 33 2 60 -36z
m-4527 -4906 c139 -17 356 -49 482 -72 l230 -41 460 -1 c492 -1 512 0 791 54
295 56 465 62 627 21 196 -51 359 -184 447 -366 53 -110 70 -180 76 -320 13
-263 -74 -482 -266 -676 -191 -192 -328 -250 -790 -333 -420 -76 -619 -91
-1125 -82 -638 10 -820 24 -1145 87 -361 71 -484 109 -678 209 -192 99 -306
209 -388 375 -64 131 -79 195 -78 350 1 156 22 246 89 380 130 260 347 405
665 444 115 15 326 4 603 -29z"/>
<path d="M9952 12373 c-16 -15 -47 -86 -67 -160 -3 -8 -18 -6 -55 8 -72 27
-161 26 -195 -4 -41 -35 -43 -86 -7 -213 17 -60 32 -117 34 -126 2 -13 29 13
88 85 68 82 96 107 140 129 205 99 485 24 549 -147 22 -58 27 -108 41 -384 6
-131 13 -187 22 -193 20 -14 139 -3 176 16 23 12 32 24 32 41 0 27 -10 34
-115 81 -58 26 -70 35 -70 55 0 34 38 49 126 49 145 0 222 49 193 125 -13 32
-66 48 -183 55 -112 6 -114 6 -142 38 -55 62 -29 126 79 196 153 98 164 186
24 186 -43 0 -67 -7 -118 -36 -58 -32 -70 -35 -112 -29 -26 4 -50 12 -54 18
-4 7 -8 46 -8 88 0 62 -4 81 -21 103 -33 42 -66 35 -121 -25 -56 -61 -81 -63
-113 -5 -34 61 -85 81 -123 49z"/>
<path d="M9449 11801 c-20 -20 -29 -39 -29 -61 0 -38 5 -48 76 -147 l56 -78
-63 -8 c-35 -5 -79 -15 -96 -22 -60 -26 -54 -98 12 -137 29 -16 171 -46 180
-37 2 3 -1 62 -7 132 -13 148 -2 239 37 326 14 29 25 55 25 57 0 2 -36 4 -81
4 -76 0 -82 -2 -110 -29z"/>
<path d="M10321 11704 c0 -11 3 -14 6 -6 3 7 2 16 -1 19 -3 4 -6 -2 -5 -13z"/>
<path d="M10333 11565 c0 -44 2 -61 4 -37 2 23 2 59 0 80 -2 20 -4 1 -4 -43z"/>
<path d="M7597 11559 c-75 -11 -146 -50 -203 -111 -57 -61 -90 -132 -105 -227
-31 -200 42 -343 226 -446 227 -127 418 -104 596 74 143 143 193 300 135 426
-27 59 -135 180 -191 215 -42 26 -165 58 -271 70 -99 11 -105 11 -187 -1z
m283 -164 c71 -25 136 -72 156 -113 21 -44 24 -196 5 -255 -15 -43 -77 -102
-140 -130 -35 -16 -66 -21 -136 -22 -81 0 -95 3 -141 28 -63 35 -123 92 -139
132 -63 152 17 324 175 376 36 12 167 3 220 -16z"/>
<path d="M7672 11272 c-51 -48 -55 -112 -11 -174 25 -34 90 -67 132 -68 70 0
127 58 127 129 0 57 -16 82 -76 115 -66 37 -131 36 -172 -2z"/>
<path d="M12347 11559 c-116 -17 -213 -95 -270 -217 -27 -59 -31 -79 -35 -178
-5 -131 7 -177 64 -255 68 -93 234 -189 365 -210 166 -27 354 68 470 237 84
122 103 252 53 353 -30 59 -143 180 -195 207 -47 24 -165 52 -268 64 -96 11
-103 11 -184 -1z m273 -159 c59 -16 143 -73 165 -110 17 -29 20 -52 20 -140 0
-93 -3 -110 -25 -148 -43 -76 -156 -132 -266 -132 -75 0 -150 31 -217 91 -67
59 -81 97 -75 205 3 58 9 80 33 119 35 56 87 101 141 121 42 16 160 13 224 -6z"/>
<path d="M12439 11285 c-35 -19 -63 -79 -55 -118 24 -118 168 -177 247 -101
69 66 58 150 -28 203 -54 34 -119 41 -164 16z"/>
<path d="M10345 11428 c2 -26 11 -62 20 -80 8 -18 13 -24 9 -13 -3 11 -12 47
-20 80 -13 56 -14 57 -9 13z"/>
<path d="M10380 11306 c0 -10 60 -126 65 -126 3 0 -9 28 -26 63 -33 65 -39 75
-39 63z"/>
<path d="M10479 11115 c10 -22 32 -51 47 -65 25 -22 24 -20 -7 21 -19 26 -40
55 -47 65 -7 11 -4 1 7 -21z"/>
<path d="M10590 10469 c-12 -22 -20 -45 -18 -50 2 -6 13 12 25 40 26 61 21 67
-7 10z"/>
<path d="M10561 10374 c0 -11 3 -14 6 -6 3 7 2 16 -1 19 -3 4 -6 -2 -5 -13z"/>
<path d="M10841 9456 c18 -33 39 -80 45 -105 11 -39 13 -42 13 -16 1 31 -36
112 -70 155 -11 14 -5 -2 12 -34z"/>
<path d="M10903 9250 c0 -30 2 -43 4 -27 2 15 2 39 0 55 -2 15 -4 2 -4 -28z"/>
<path d="M7097 9179 c-84 -11 -172 -40 -244 -81 -153 -86 -210 -228 -220 -546
l-6 -162 33 -68 c43 -89 168 -213 265 -264 122 -64 158 -70 392 -66 l208 3 67
32 c100 47 148 97 216 226 51 98 61 124 72 205 23 166 1 319 -63 431 -31 55
-47 70 -117 116 -36 24 -83 61 -105 84 -32 34 -46 41 -77 41 -21 0 -38 4 -38
9 0 5 -28 19 -62 30 -67 23 -190 27 -321 10z m152 -321 c1 -36 -3 -48 -14 -48
-13 0 -15 20 -14 123 l1 122 13 -75 c8 -41 14 -96 14 -122z m227 13 c-19 -37
-65 -91 -77 -91 -21 0 -6 36 33 76 49 51 65 56 44 15z m-452 -88 c52 -35 72
-64 44 -63 -16 1 -127 100 -112 100 6 0 37 -17 68 -37z m346 -18 c67 -34 111
-108 118 -196 6 -81 -24 -126 -115 -169 -116 -55 -211 -39 -282 47 -29 35 -31
43 -31 117 0 66 4 86 24 120 25 42 84 83 140 97 38 9 112 1 146 -16z m350
-135 c0 -32 -192 -40 -198 -8 -3 15 8 17 97 17 56 0 101 -4 101 -9z m-685 -80
c0 -12 -20 -16 -105 -18 -113 -3 -128 10 -30 27 79 13 135 10 135 -9z m519
-172 c20 -23 34 -43 31 -46 -2 -2 -23 10 -47 29 -24 18 -45 34 -47 35 -5 4 10
24 19 24 5 0 25 -19 44 -42z m-414 -17 c0 -12 -90 -111 -101 -111 -13 0 7 35
44 83 28 34 57 49 57 28z m183 -105 c8 -83 3 -146 -10 -132 -9 8 -32 209 -26
219 15 24 29 -9 36 -87z"/>
<path d="M10888 9165 c-4 -16 -13 -48 -21 -70 -8 -22 -17 -65 -20 -95 l-6 -55
10 45 c5 25 19 75 31 111 11 37 18 73 16 80 -3 8 -7 1 -10 -16z"/>
<path d="M12788 9180 c-120 -14 -255 -70 -328 -136 -88 -79 -135 -243 -147
-501 l-6 -152 33 -68 c24 -47 57 -91 110 -143 86 -85 156 -130 260 -166 68
-24 79 -25 283 -22 l212 3 75 36 c103 49 144 94 212 230 65 129 78 188 78 346
0 114 -15 176 -67 275 -30 58 -45 74 -102 112 -36 24 -89 64 -117 90 -37 32
-61 46 -81 46 -16 0 -33 4 -39 10 -5 5 -36 19 -68 30 -63 21 -176 25 -308 10z
m141 -259 c8 -64 9 -97 2 -104 -20 -20 -26 5 -28 121 -3 134 8 126 26 -17z
m212 -80 c-33 -51 -56 -68 -67 -50 -6 11 86 113 94 104 3 -2 -10 -27 -27 -54z
m-418 -68 c49 -36 59 -53 31 -53 -15 0 -104 73 -112 92 -6 14 32 -4 81 -39z
m277 7 c67 -13 108 -44 142 -106 36 -67 43 -122 23 -170 -22 -53 -41 -72 -109
-106 -104 -53 -215 -35 -278 44 -35 44 -45 103 -33 183 9 62 72 127 142 149
60 18 51 18 113 6z m400 -150 c0 -15 -62 -30 -126 -30 -60 0 -82 9 -69 29 7
12 195 13 195 1z m-685 -80 c0 -12 -19 -16 -100 -18 -74 -2 -97 0 -88 9 13 13
102 28 153 25 24 -1 35 -6 35 -16z m503 -146 c22 -15 59 -74 46 -74 -14 0 -93
73 -88 81 7 13 16 11 42 -7z m-398 -47 c0 -15 -91 -109 -98 -102 -3 2 12 29
33 60 36 52 65 71 65 42z m184 -44 c9 -57 7 -193 -3 -193 -9 0 -16 41 -27 158
-6 60 -4 72 8 72 10 0 18 -14 22 -37z"/>
<path d="M10621 8974 c0 -11 3 -14 6 -6 3 7 2 16 -1 19 -3 4 -6 -2 -5 -13z"/>
<path d="M10850 8916 c0 -8 4 -17 9 -20 5 -4 7 3 4 14 -6 23 -13 26 -13 6z"/>
<path d="M10622 8870 c0 -14 2 -19 5 -12 2 6 2 18 0 25 -3 6 -5 1 -5 -13z"/>
<path d="M10651 8752 c-1 -14 37 -92 44 -92 3 0 -3 17 -13 38 -11 20 -22 44
-25 52 -4 10 -6 11 -6 2z"/>
<path d="M10960 8645 c0 -5 5 -17 10 -25 5 -8 10 -10 10 -5 0 6 -5 17 -10 25
-5 8 -10 11 -10 5z"/>
<path d="M10991 8554 c0 -11 3 -14 6 -6 3 7 2 16 -1 19 -3 4 -6 -2 -5 -13z"/>
<path d="M11003 8495 c0 -22 2 -30 4 -17 2 12 2 30 0 40 -3 9 -5 -1 -4 -23z"/>
<path d="M11012 8415 c0 -16 2 -22 5 -12 2 9 2 23 0 30 -3 6 -5 -1 -5 -18z"/>
<path d="M10367 7864 c-3 -3 -39 -9 -79 -14 -64 -6 -67 -7 -23 -8 47 -2 173
25 129 27 -11 1 -23 -2 -27 -5z"/>
<path d="M10130 7699 c0 -5 5 -7 10 -4 6 3 10 8 10 11 0 2 -4 4 -10 4 -5 0
-10 -5 -10 -11z"/>
</g>
</svg>
